<?xml version="1.0" encoding="UTF-8" standalone="no"?>
<svg xmlns:svg="http://www.w3.org/2000/svg" xmlns="http://www.w3.org/2000/svg" version="1.1" viewBox="0 0 30.240999 9.198" height="9.198mm" width="30.240999mm"><g transform="translate(0,-287.802)"><g transform="translate(-9.6228139,222.28473)"><path d="m 22.810643,65.516869 q 1.147217,0.05168 1.353923,1.240234 0,0.89917 -0.764812,1.157552 -1.81901,0.372071 -2.025716,0.826823 2.645834,0.279053 3.214274,3.090251 h 0.279053 l 0.19637,0.764811 -0.475423,0.134359 h -0.03101 q -0.175699,1.798339 -1.746663,1.891357 -1.012858,0 -1.27124,-0.961182 0,-0.868164 0.206706,-0.868164 0.165364,0.465088 0.754475,0.465088 0.02067,0 0.03101,0 0.795817,0 0.930176,-0.795817 -2.707845,-0.795817 -2.780192,-3.286621 h -0.03101 q -1.353922,0 -2.056722,1.126546 1.384929,0.661459 1.384929,1.705323 -0.09302,2.54248 -3.545003,2.707845 -6.356201,-0.03101 -6.8109541,-3.710368 0,-0.599447 0.6821291,-0.692464 0.527099,0.03101 0.609782,0.485758 v 0.237712 l -0.134359,0.403076 q 0,0.930176 1.167887,1.054199 0.919841,0 1.0542,-0.795817 0.54777,-4.940267 3.627685,-5.146972 2.025716,0.06201 2.025716,1.715657 v 0.08268 q 0,0.403077 -0.434082,1.42627 0.961182,-0.795817 1.99471,-1.002523 0.630453,0 0.630453,-0.392741 0.74414,-0.868164 1.550293,-1.291911 0.589111,-0.37207 0.589111,-0.74414 0,-0.134359 -0.196371,-0.444417 -0.186035,-0.310059 0.02067,-0.382406 z m -1.601969,3.658691 q -0.01034,0.08268 -0.01034,0.1757 0,1.364258 2.366781,2.118734 v -0.03101 Q 23.23439,69.568301 21.208674,69.17556 Z" /></g><g transform="matrix(-1,0,0,1,39.863735,222.28473)"><path d="m 22.810643,65.516869 q 1.147217,0.05168 1.353923,1.240234 0,0.89917 -0.764812,1.157552 -1.81901,0.372071 -2.025716,0.826823 2.645834,0.279053 3.214274,3.090251 h 0.279053 l 0.19637,0.764811 -0.475423,0.134359 h -0.03101 q -0.175699,1.798339 -1.746663,1.891357 -1.012858,0 -1.27124,-0.961182 0,-0.868164 0.206706,-0.868164 0.165364,0.465088 0.754475,0.465088 0.02067,0 0.03101,0 0.795817,0 0.930176,-0.795817 -2.707845,-0.795817 -2.780192,-3.286621 h -0.03101 q -1.353922,0 -2.056722,1.126546 1.384929,0.661459 1.384929,1.705323 -0.09302,2.54248 -3.545003,2.707845 -6.356201,-0.03101 -6.8109541,-3.710368 0,-0.599447 0.6821291,-0.692464 0.527099,0.03101 0.609782,0.485758 v 0.237712 l -0.134359,0.403076 q 0,0.930176 1.167887,1.054199 0.919841,0 1.0542,-0.795817 0.54777,-4.940267 3.627685,-5.146972 2.025716,0.06201 2.025716,1.715657 v 0.08268 q 0,0.403077 -0.434082,1.42627 0.961182,-0.795817 1.99471,-1.002523 0.630453,0 0.630453,-0.392741 0.74414,-0.868164 1.550293,-1.291911 0.589111,-0.37207 0.589111,-0.74414 0,-0.134359 -0.196371,-0.444417 -0.186035,-0.310059 0.02067,-0.382406 z m -1.601969,3.658691 q -0.01034,0.08268 -0.01034,0.1757 0,1.364258 2.366781,2.118734 v -0.03101 Q 23.23439,69.568301 21.208674,69.17556 Z" /></g></g></svg>
