<svg xmlns="http://www.w3.org/2000/svg" viewBox="0 0 30.2 9.2" height="34.8" width="114.3"><path d="M13.2 0q1.1 0 1.3 1.2 0 1-.7 1.2-1.8.4-2 .8 2.6.3 3.2 3.1h.2l.2.8-.4.1q-.2 1.8-1.8 1.9-1 0-1.3-1 0-.8.2-.8.2.4.8.4.8 0 1-.8Q11 6.1 11 3.7q-1.4 0-2.1 1 1.4.7 1.4 1.8-.1 2.5-3.6 2.7Q.5 9.2 0 5.5q0-.6.7-.7.5 0 .6.5v.2l-.1.4q0 1 1.1 1 1 0 1-.7Q4 1.2 7 1q2 .1 2 1.7v.1q0 .4-.4 1.5 1-.8 2-1 .6 0 .6-.4.8-1 1.6-1.3.6-.4.6-.8l-.2-.4q-.2-.3 0-.4zm-1.6 3.7v.1q0 1.4 2.3 2.2-.3-2-2.3-2.3z"/><path d="M17 0q-1 0-1.3 1.2 0 1 .8 1.2 1.8.4 2 .8-2.7.3-3.2 3.1H15l-.2.8.5.1q.2 1.8 1.8 1.9 1 0 1.2-1 0-.8-.2-.8-.1.4-.7.4-.9 0-1-.8 2.7-.8 2.8-3.2 1.4 0 2 1-1.3.7-1.3 1.8 0 2.5 3.5 2.7 6.4 0 6.8-3.7 0-.6-.6-.7-.6 0-.7.5v.2l.2.4q0 1-1.2 1-.9 0-1-.7-.6-5-3.7-5.2-2 .1-2 1.7v.1q0 .4.4 1.5-1-.8-2-1-.6 0-.6-.4-.7-1-1.5-1.3-.6-.4-.6-.8l.2-.4q.2-.3 0-.4zm1.7 3.7v.1q0 1.4-2.4 2.2.3-2 2.4-2.3z"/></svg>